<svg width="3413" height="803" viewBox="0 0 3413 803" fill="none" xmlns="http://www.w3.org/2000/svg">
<path d="M3052.75 602.114L3049.79 599H3045.5H2678H1943H648C556.873 599 483 525.127 483 434V175C483 83.873 556.873 10 648 10H3238C3329.13 10 3403 83.873 3403 175V434C3403 525.127 3329.13 599 3238 599H3229.25H3219.25V609V777.447L3052.75 602.114Z" stroke="#19ED81" stroke-width="20"/>
<path d="M0 175C0 78.3502 78.3502 0 175 0H1931V304.5V609H175C78.3501 609 0 530.65 0 434V175Z" fill="#19ED81"/>
<path d="M179.209 456.732C173.187 456.732 168.792 456 166.025 454.535C163.258 452.908 161.875 450.466 161.875 447.211V260.199H144.541C138.682 260.199 135.752 255.886 135.752 247.26V241.889C135.752 233.262 138.682 228.949 144.541 228.949H161.875V187.689C161.875 164.903 167.49 149.278 178.721 140.814C190.114 132.188 203.135 127.875 217.783 127.875C238.942 127.875 249.521 132.27 249.521 141.059C249.521 142.523 249.115 144.965 248.301 148.383C247.65 151.638 246.592 154.568 245.127 157.172C243.825 159.776 242.279 161.078 240.488 161.078C239.512 161.078 237.477 160.753 234.385 160.102C231.292 159.451 227.061 159.125 221.689 159.125C216.807 159.125 212.656 159.857 209.238 161.322C205.983 162.787 203.298 165.88 201.182 170.6C199.229 175.32 198.252 182.156 198.252 191.107V228.949H236.094C239.186 228.949 241.383 230.007 242.686 232.123C244.15 234.076 244.883 237.331 244.883 241.889V247.26C244.883 251.817 244.15 255.154 242.686 257.27C241.383 259.223 239.186 260.199 236.094 260.199H198.252V447.211C198.252 450.466 196.868 452.908 194.102 454.535C191.335 456 187.021 456.732 181.162 456.732H179.209ZM386.484 458.441C350.514 458.441 323.74 449.083 306.162 430.365C288.747 411.485 280.039 382.676 280.039 343.939C280.039 305.528 288.584 276.394 305.674 256.537C322.764 236.518 347.91 226.508 381.113 226.508C410.736 226.508 433.034 236.111 448.008 255.316C463.145 274.522 470.713 302.68 470.713 339.789C470.713 341.417 469.818 343.695 468.027 346.625C466.4 349.392 464.365 351.915 461.924 354.193C459.645 356.309 457.692 357.367 456.064 357.367H319.102C320.892 381.618 327.077 399.359 337.656 410.59C348.398 421.658 364.512 427.191 385.996 427.191C398.04 427.191 408.376 425.727 417.002 422.797C425.791 419.867 434.255 416.286 442.393 412.055C443.206 411.729 444.427 411.16 446.055 410.346C447.682 409.532 448.822 409.125 449.473 409.125C451.263 409.125 453.298 410.59 455.576 413.52C458.018 416.286 460.052 419.46 461.68 423.041C463.47 426.459 464.365 428.982 464.365 430.609C464.365 434.19 460.785 438.178 453.623 442.572C446.462 446.967 436.859 450.71 424.814 453.803C412.933 456.895 400.156 458.441 386.484 458.441ZM431.895 326.117C431.895 280.544 414.561 257.758 379.893 257.758C342.62 257.758 322.357 280.544 319.102 326.117H431.895ZM620.859 458.441C584.889 458.441 558.115 449.083 540.537 430.365C523.122 411.485 514.414 382.676 514.414 343.939C514.414 305.528 522.959 276.394 540.049 256.537C557.139 236.518 582.285 226.508 615.488 226.508C645.111 226.508 667.409 236.111 682.383 255.316C697.52 274.522 705.088 302.68 705.088 339.789C705.088 341.417 704.193 343.695 702.402 346.625C700.775 349.392 698.74 351.915 696.299 354.193C694.02 356.309 692.067 357.367 690.439 357.367H553.477C555.267 381.618 561.452 399.359 572.031 410.59C582.773 421.658 598.887 427.191 620.371 427.191C632.415 427.191 642.751 425.727 651.377 422.797C660.166 419.867 668.63 416.286 676.768 412.055C677.581 411.729 678.802 411.16 680.43 410.346C682.057 409.532 683.197 409.125 683.848 409.125C685.638 409.125 687.673 410.59 689.951 413.52C692.393 416.286 694.427 419.46 696.055 423.041C697.845 426.459 698.74 428.982 698.74 430.609C698.74 434.19 695.16 438.178 687.998 442.572C680.837 446.967 671.234 450.71 659.189 453.803C647.308 456.895 634.531 458.441 620.859 458.441ZM666.27 326.117C666.27 280.544 648.936 257.758 614.268 257.758C576.995 257.758 556.732 280.544 553.477 326.117H666.27ZM831.553 458.441C814.626 458.441 799.814 453.559 787.119 443.793C774.424 433.865 764.577 420.111 757.578 402.533C750.742 384.955 747.324 365.017 747.324 342.719C747.324 318.142 750.986 297.146 758.311 279.73C765.798 262.152 776.214 248.887 789.561 239.936C802.907 230.984 818.288 226.508 835.703 226.508C848.236 226.508 859.303 228.38 868.906 232.123C878.672 235.867 888.275 241.319 897.715 248.48V139.105C897.715 132.758 903.411 129.584 914.805 129.584H916.758C928.314 129.584 934.092 132.758 934.092 139.105V391.791C934.092 410.671 934.987 424.343 936.777 432.807C938.568 441.107 939.463 445.665 939.463 446.479C939.463 450.059 936.696 452.663 931.162 454.291C925.791 455.756 920.745 456.488 916.025 456.488C912.77 456.488 910.166 454.942 908.213 451.85C906.26 448.757 904.876 445.665 904.062 442.572C903.411 439.317 902.272 433.783 900.645 425.971C879.974 447.618 856.943 458.441 831.553 458.441ZM839.121 426.947C848.724 426.947 858.652 424.343 868.906 419.135C879.323 413.926 888.926 406.521 897.715 396.918V278.021C882.09 265.001 864.268 258.49 844.248 258.49C824.88 258.979 810.231 266.059 800.303 279.73C790.537 293.402 785.654 313.259 785.654 339.301C785.654 367.296 790.212 388.943 799.326 404.242C808.604 419.379 821.868 426.947 839.121 426.947ZM1109.87 458.441C1084.48 458.441 1061.45 447.618 1040.78 425.971C1039.48 434.923 1037.12 443.467 1033.7 451.605C1033.05 453.559 1031.75 454.942 1029.79 455.756C1028 456.407 1025.48 456.732 1022.23 456.732H1020.52C1015.96 456.732 1012.62 456 1010.51 454.535C1008.55 452.908 1007.58 450.466 1007.58 447.211V139.105C1007.58 132.758 1013.27 129.584 1024.67 129.584H1026.62C1038.01 129.584 1043.71 132.758 1043.71 139.105V248.48C1053.15 241.319 1062.75 235.867 1072.52 232.123C1082.29 228.38 1093.43 226.508 1105.97 226.508C1123.22 226.508 1138.52 230.984 1151.87 239.936C1165.21 248.887 1175.55 262.071 1182.87 279.486C1190.36 296.902 1194.1 317.816 1194.1 342.23C1194.1 364.691 1190.68 384.792 1183.85 402.533C1177.01 420.111 1167.25 433.865 1154.55 443.793C1141.86 453.559 1126.96 458.441 1109.87 458.441ZM1102.55 426.947C1119.64 426.947 1132.74 419.379 1141.86 404.242C1151.13 388.943 1155.77 367.296 1155.77 339.301C1155.77 313.259 1150.89 293.402 1141.12 279.73C1131.36 266.059 1116.87 258.979 1097.67 258.49C1088.06 258.49 1078.62 260.118 1069.35 263.373C1060.07 266.628 1051.52 271.511 1043.71 278.021V396.918C1052.66 406.521 1062.27 413.926 1072.52 419.135C1082.77 424.343 1092.78 426.947 1102.55 426.947ZM1313 458.441C1290.86 458.441 1272.96 452.989 1259.29 442.084C1245.62 431.179 1238.78 414.984 1238.78 393.5C1238.78 370.876 1245.7 353.868 1259.53 342.475C1273.37 330.919 1290.21 323.513 1310.07 320.258C1330.09 316.84 1354.34 314.887 1382.82 314.398V293.891C1382.82 282.986 1379.08 274.278 1371.59 267.768C1364.27 261.094 1352.14 257.758 1335.21 257.758C1322.36 257.758 1311.04 259.304 1301.28 262.396C1291.68 265.326 1282.64 268.907 1274.18 273.139C1270.6 274.929 1268.4 275.824 1267.59 275.824C1265.63 275.824 1263.44 274.441 1261 271.674C1258.72 268.744 1256.68 265.489 1254.89 261.908C1253.26 258.327 1252.45 255.723 1252.45 254.096C1252.45 250.352 1256.28 246.283 1263.93 241.889C1271.74 237.494 1281.91 233.832 1294.44 230.902C1306.98 227.973 1320.08 226.508 1333.75 226.508C1360.93 226.508 1382.01 232.449 1396.98 244.33C1411.96 256.212 1419.44 272.895 1419.44 294.379V391.791C1419.44 410.671 1420.26 424.343 1421.88 432.807C1423.68 441.107 1424.57 445.665 1424.57 446.479C1424.57 450.059 1421.8 452.663 1416.27 454.291C1410.9 455.756 1405.85 456.488 1401.13 456.488C1397.23 456.488 1394.3 454.291 1392.34 449.896C1390.55 445.502 1388.76 439.154 1386.97 430.854L1386 425.971C1377.04 435.899 1366.46 443.793 1354.26 449.652C1342.21 455.512 1328.46 458.441 1313 458.441ZM1314.95 426.947C1329.27 426.947 1341.48 424.343 1351.57 419.135C1361.66 413.926 1372.08 406.521 1382.82 396.918V345.648C1361.34 345.811 1343.68 346.706 1329.84 348.334C1316.01 349.962 1303.88 354.112 1293.47 360.785C1283.05 367.296 1277.84 377.468 1277.84 391.303C1277.84 402.859 1280.93 411.729 1287.12 417.914C1293.47 423.936 1302.74 426.947 1314.95 426.947ZM1583.75 458.441C1547.78 458.441 1520.92 449.245 1503.18 430.854C1485.61 412.299 1476.82 382.514 1476.82 341.498C1476.82 299.994 1486.66 270.453 1506.36 252.875C1526.05 235.297 1550.55 226.508 1579.84 226.508C1590.75 226.508 1601.25 227.484 1611.34 229.438C1621.43 231.228 1629.57 233.669 1635.75 236.762C1641.94 239.854 1645.03 243.109 1645.03 246.527C1645.03 248.806 1644.22 251.817 1642.59 255.561C1641.12 259.304 1639.25 262.641 1636.97 265.57C1634.86 268.337 1632.9 269.721 1631.11 269.721C1630.62 269.721 1629.89 269.558 1628.92 269.232C1627.94 268.744 1627.04 268.337 1626.23 268.012C1611.58 261.176 1595.79 257.758 1578.87 257.758C1558.85 257.758 1543.39 264.35 1532.48 277.533C1521.58 290.554 1516.12 311.55 1516.12 340.521C1516.12 361.029 1518.32 377.631 1522.71 390.326C1527.11 402.859 1534.19 412.136 1543.96 418.158C1553.88 424.18 1567.07 427.191 1583.51 427.191C1601.57 427.191 1617.85 423.448 1632.33 415.961C1633.8 415.635 1634.86 415.31 1635.51 414.984C1636.32 414.496 1636.89 414.252 1637.22 414.252C1639.01 414.252 1641.04 415.635 1643.32 418.402C1645.6 421.169 1647.55 424.343 1649.18 427.924C1650.97 431.505 1651.87 434.353 1651.87 436.469C1651.87 439.887 1648.77 443.305 1642.59 446.723C1636.4 450.141 1628.02 452.989 1617.44 455.268C1607.02 457.383 1595.79 458.441 1583.75 458.441ZM1723.15 456.732C1711.44 456.732 1705.58 453.559 1705.58 447.211V139.105C1705.58 132.758 1711.44 129.584 1723.15 129.584H1724.86C1736.42 129.584 1742.2 132.758 1742.2 139.105V333.197H1743.91L1826.91 234.076C1830.01 230.17 1837.66 228.217 1849.86 228.217H1851.33C1856.37 228.217 1860.2 228.705 1862.8 229.682C1865.41 230.658 1866.71 231.96 1866.71 233.588C1866.71 236.029 1865.24 238.959 1862.31 242.377L1781.5 337.836L1871.1 443.793C1873.54 446.56 1874.77 448.839 1874.77 450.629C1874.77 453.07 1873.38 454.698 1870.62 455.512C1867.85 456.326 1862.97 456.732 1855.97 456.732H1854.01C1847.99 456.732 1843.11 456.407 1839.37 455.756C1835.62 455.105 1832.69 453.559 1830.58 451.117L1743.91 348.09H1742.2V447.211C1742.2 453.559 1736.42 456.732 1724.86 456.732H1723.15Z" fill="white"/>
<path d="M2134.78 458.441C2109.38 458.441 2086.35 447.618 2065.68 425.971C2064.38 434.923 2062.02 443.467 2058.6 451.605C2057.95 453.559 2056.65 454.942 2054.7 455.756C2052.91 456.407 2050.38 456.732 2047.13 456.732H2045.42C2040.86 456.732 2037.53 456 2035.41 454.535C2033.46 452.908 2032.48 450.466 2032.48 447.211V139.105C2032.48 132.758 2038.18 129.584 2049.57 129.584H2051.52C2062.92 129.584 2068.61 132.758 2068.61 139.105V248.48C2078.05 241.319 2087.66 235.867 2097.42 232.123C2107.19 228.38 2118.34 226.508 2130.87 226.508C2148.12 226.508 2163.42 230.984 2176.77 239.936C2190.11 248.887 2200.45 262.071 2207.77 279.486C2215.26 296.902 2219 317.816 2219 342.23C2219 364.691 2215.59 384.792 2208.75 402.533C2201.91 420.111 2192.15 433.865 2179.45 443.793C2166.76 453.559 2151.87 458.441 2134.78 458.441ZM2127.45 426.947C2144.54 426.947 2157.64 419.379 2166.76 404.242C2176.04 388.943 2180.67 367.296 2180.67 339.301C2180.67 313.259 2175.79 293.402 2166.03 279.73C2156.26 266.059 2141.77 258.979 2122.57 258.49C2112.97 258.49 2103.53 260.118 2094.25 263.373C2084.97 266.628 2076.43 271.511 2068.61 278.021V396.918C2077.57 406.521 2087.17 413.926 2097.42 419.135C2107.68 424.343 2117.69 426.947 2127.45 426.947ZM2372.81 458.441C2336.84 458.441 2310.07 449.083 2292.49 430.365C2275.07 411.485 2266.37 382.676 2266.37 343.939C2266.37 305.528 2274.91 276.394 2292 256.537C2309.09 236.518 2334.24 226.508 2367.44 226.508C2397.06 226.508 2419.36 236.111 2434.34 255.316C2449.47 274.522 2457.04 302.68 2457.04 339.789C2457.04 341.417 2456.15 343.695 2454.36 346.625C2452.73 349.392 2450.69 351.915 2448.25 354.193C2445.97 356.309 2444.02 357.367 2442.39 357.367H2305.43C2307.22 381.618 2313.4 399.359 2323.98 410.59C2334.73 421.658 2350.84 427.191 2372.32 427.191C2384.37 427.191 2394.7 425.727 2403.33 422.797C2412.12 419.867 2420.58 416.286 2428.72 412.055C2429.53 411.729 2430.76 411.16 2432.38 410.346C2434.01 409.532 2435.15 409.125 2435.8 409.125C2437.59 409.125 2439.63 410.59 2441.9 413.52C2444.35 416.286 2446.38 419.46 2448.01 423.041C2449.8 426.459 2450.69 428.982 2450.69 430.609C2450.69 434.19 2447.11 438.178 2439.95 442.572C2432.79 446.967 2423.19 450.71 2411.14 453.803C2399.26 456.895 2386.48 458.441 2372.81 458.441ZM2418.22 326.117C2418.22 280.544 2400.89 257.758 2366.22 257.758C2328.95 257.758 2308.68 280.544 2305.43 326.117H2418.22ZM2583.51 458.441C2566.58 458.441 2551.77 453.559 2539.07 443.793C2526.38 433.865 2516.53 420.111 2509.53 402.533C2502.7 384.955 2499.28 365.017 2499.28 342.719C2499.28 318.142 2502.94 297.146 2510.26 279.73C2517.75 262.152 2528.17 248.887 2541.51 239.936C2554.86 230.984 2570.24 226.508 2587.66 226.508C2600.19 226.508 2611.26 228.38 2620.86 232.123C2630.62 235.867 2640.23 241.319 2649.67 248.48V139.105C2649.67 132.758 2655.36 129.584 2666.76 129.584H2668.71C2680.27 129.584 2686.04 132.758 2686.04 139.105V391.791C2686.04 410.671 2686.94 424.343 2688.73 432.807C2690.52 441.107 2691.42 445.665 2691.42 446.479C2691.42 450.059 2688.65 452.663 2683.12 454.291C2677.74 455.756 2672.7 456.488 2667.98 456.488C2664.72 456.488 2662.12 454.942 2660.17 451.85C2658.21 448.757 2656.83 445.665 2656.02 442.572C2655.36 439.317 2654.23 433.783 2652.6 425.971C2631.93 447.618 2608.9 458.441 2583.51 458.441ZM2591.07 426.947C2600.68 426.947 2610.61 424.343 2620.86 419.135C2631.28 413.926 2640.88 406.521 2649.67 396.918V278.021C2634.04 265.001 2616.22 258.49 2596.2 258.49C2576.83 258.979 2562.18 266.059 2552.26 279.73C2542.49 293.402 2537.61 313.259 2537.61 339.301C2537.61 367.296 2542.16 388.943 2551.28 404.242C2560.56 419.379 2573.82 426.947 2591.07 426.947ZM2852.79 458.441C2816.82 458.441 2790.05 449.083 2772.47 430.365C2755.06 411.485 2746.35 382.676 2746.35 343.939C2746.35 305.528 2754.89 276.394 2771.98 256.537C2789.07 236.518 2814.22 226.508 2847.42 226.508C2877.04 226.508 2899.34 236.111 2914.32 255.316C2929.45 274.522 2937.02 302.68 2937.02 339.789C2937.02 341.417 2936.13 343.695 2934.34 346.625C2932.71 349.392 2930.67 351.915 2928.23 354.193C2925.95 356.309 2924 357.367 2922.37 357.367H2785.41C2787.2 381.618 2793.39 399.359 2803.96 410.59C2814.71 421.658 2830.82 427.191 2852.3 427.191C2864.35 427.191 2874.68 425.727 2883.31 422.797C2892.1 419.867 2900.56 416.286 2908.7 412.055C2909.51 411.729 2910.74 411.16 2912.36 410.346C2913.99 409.532 2915.13 409.125 2915.78 409.125C2917.57 409.125 2919.61 410.59 2921.88 413.52C2924.33 416.286 2926.36 419.46 2927.99 423.041C2929.78 426.459 2930.67 428.982 2930.67 430.609C2930.67 434.19 2927.09 438.178 2919.93 442.572C2912.77 446.967 2903.17 450.71 2891.12 453.803C2879.24 456.895 2866.46 458.441 2852.79 458.441ZM2898.2 326.117C2898.2 280.544 2880.87 257.758 2846.2 257.758C2808.93 257.758 2788.67 280.544 2785.41 326.117H2898.2ZM2996.35 456.732C2990.33 456.732 2985.93 456 2983.16 454.535C2980.4 452.908 2979.01 450.466 2979.01 447.211V418.646C2979.01 412.299 2984.79 409.125 2996.35 409.125H3003.67C3015.23 409.125 3021.01 412.299 3021.01 418.646V447.211C3021.01 450.466 3019.62 452.908 3016.86 454.535C3014.09 456 3009.69 456.732 3003.67 456.732H2996.35ZM3098.4 174.262C3086.84 174.262 3081.06 171.088 3081.06 164.74V139.105C3081.06 132.758 3086.84 129.584 3098.4 129.584H3103.53C3115.24 129.584 3121.1 132.758 3121.1 139.105V164.74C3121.1 171.088 3115.24 174.262 3103.53 174.262H3098.4ZM3100.11 456.732C3088.55 456.732 3082.77 453.559 3082.77 447.211V237.738C3082.77 231.391 3088.55 228.217 3100.11 228.217H3101.82C3113.54 228.217 3119.39 231.391 3119.39 237.738V447.211C3119.39 453.559 3113.54 456.732 3101.82 456.732H3100.11ZM3215.1 456.732C3208.91 456.732 3204.44 456 3201.67 454.535C3198.9 452.908 3197.52 450.466 3197.52 447.211V294.867C3197.52 275.987 3196.62 262.396 3194.83 254.096C3193.04 245.632 3192.15 240.993 3192.15 240.18C3192.15 236.599 3194.83 234.076 3200.21 232.611C3205.74 230.984 3210.95 230.17 3215.83 230.17C3219.74 230.17 3222.67 232.286 3224.62 236.518C3226.57 240.587 3228.28 246.365 3229.75 253.852L3230.97 258.979C3246.43 237.331 3263.19 226.508 3281.26 226.508C3289.56 226.508 3295.83 228.054 3300.06 231.146C3304.29 234.076 3306.41 238.064 3306.41 243.109C3306.41 247.992 3305.51 253.201 3303.72 258.734C3302.09 264.105 3300.14 266.791 3297.86 266.791C3296.72 266.791 3294.69 266.303 3291.76 265.326C3289.15 264.187 3286.55 263.373 3283.95 262.885C3281.34 262.234 3278 261.908 3273.94 261.908C3267.26 261.908 3260.91 263.861 3254.89 267.768C3249.03 271.674 3244.07 275.987 3240 280.707C3235.93 285.427 3233.9 288.031 3233.9 288.52V447.211C3233.9 450.466 3232.51 452.908 3229.75 454.535C3226.98 456 3222.67 456.732 3216.81 456.732H3215.1Z" fill="#19ED81"/>
</svg>
